# Blender v2.77 (sub 0) OBJ File: 'Motor.obj'
# www.blender.org
mtllib Motor.mtl
o Icosphere
v -0.039859 -0.962362 0.028959
v -0.039859 -0.962362 -0.028959
v 0.015225 -0.962362 -0.046857
v 0.049269 -0.962362 0.000000
v 0.015225 -0.962362 0.046857
v 0.698966 -0.466034 0.472027
v 0.729415 -0.416765 0.472027
v 0.714191 -0.386315 0.518884
v 0.674331 -0.416765 0.547843
v 0.664922 -0.466034 0.518884
v -0.288016 -0.466034 0.792722
v -0.232932 -0.466034 0.810619
v -0.223523 -0.416765 0.839578
v -0.272791 -0.386315 0.839578
v -0.312650 -0.416765 0.810619
v -0.842935 -0.466034 -0.028959
v -0.842935 -0.466034 0.028959
v -0.867569 -0.416765 0.046856
v -0.882794 -0.386315 0.000000
v -0.867569 -0.416765 -0.046856
v -0.232932 -0.466034 -0.810619
v -0.288016 -0.466034 -0.792722
v -0.312650 -0.416765 -0.810619
v -0.272791 -0.386315 -0.839578
v -0.223523 -0.416765 -0.839578
v 0.729415 -0.416765 -0.472027
v 0.698966 -0.466034 -0.472027
v 0.664922 -0.466034 -0.518884
v 0.674331 -0.416765 -0.547843
v 0.714191 -0.386315 -0.518884
v 0.223523 0.416765 0.839578
v 0.272791 0.386315 0.839578
v 0.312650 0.416765 0.810619
v 0.288016 0.466034 0.792722
v 0.232932 0.466034 0.810619
v -0.729415 0.416765 0.472027
v -0.714191 0.386315 0.518884
v -0.674331 0.416765 0.547843
v -0.664922 0.466034 0.518884
v -0.698966 0.466034 0.472027
v -0.674331 0.416765 -0.547843
v -0.714191 0.386315 -0.518884
v -0.729415 0.416765 -0.472027
v -0.698966 0.466034 -0.472027
v -0.664922 0.466034 -0.518884
v 0.312650 0.416765 -0.810619
v 0.272791 0.386315 -0.839578
v 0.223523 0.416765 -0.839578
v 0.232932 0.466034 -0.810619
v 0.288016 0.466034 -0.792722
v 0.867569 0.416765 0.046856
v 0.882794 0.386315 0.000000
v 0.867569 0.416765 -0.046856
v 0.842935 0.466034 -0.028959
v 0.842935 0.466034 0.028959
v -0.015225 0.962362 0.046857
v 0.039859 0.962362 0.028959
v 0.039859 0.962362 -0.028959
v -0.015225 0.962362 -0.046857
v -0.049269 0.962362 0.000000
vt 0.291181 0.593883
vt 0.031641 0.366918
vt 0.223278 0.376159
vt 0.639250 0.300090
vt 0.639253 0.078846
vt 0.792753 0.189490
vt 0.457809 0.624633
vt 0.678963 0.624633
vt 0.568375 0.778144
vt 0.646402 0.309947
vt 0.799348 0.198810
vt 0.857642 0.378767
vt 0.304879 0.585651
vt 0.234894 0.373716
vt 0.367735 0.372709
vt 0.318708 0.594711
vt 0.379234 0.374190
vt 0.611266 0.346690
vt 0.574111 0.795573
vt 0.753878 0.854662
vt 0.574564 0.985216
vt 0.117908 0.020851
vt 0.461136 0.021188
vt 0.307735 0.131788
vt 0.810177 0.183757
vt 0.869172 0.003932
vt 0.999788 0.183213
vt 0.235844 0.364667
vt 0.303847 0.271300
vt 0.366270 0.363938
vt 0.577696 0.784745
vt 0.688832 0.631772
vt 0.757668 0.843081
vt 0.382896 0.854688
vt 0.562645 0.795567
vt 0.562353 0.985222
vt 0.799348 0.180167
vt 0.646380 0.068971
vt 0.857581 0.000174
vt 0.869219 0.374973
vt 0.810162 0.195219
vt 0.999826 0.195424
vt 0.003925 0.755261
vt 0.183344 0.624660
vt 0.183728 0.814286
vt 0.068958 0.978085
vt 0.000174 0.766854
vt 0.180135 0.825108
vt 0.300078 0.985204
vt 0.078840 0.985204
vt 0.189454 0.831704
vt 0.378766 0.766839
vt 0.309929 0.978042
vt 0.198778 0.825110
vt 0.195555 0.624633
vt 0.374965 0.755263
vt 0.195190 0.814290
vt 0.000174 0.351774
vt 0.022946 0.344672
vt 0.034707 0.353269
vt 0.011249 0.374629
vt 0.320827 0.624285
vt 0.289316 0.618980
vt 0.559057 0.784746
vt 0.099218 0.039879
vt 0.082397 0.023321
vt 0.100043 0.000174
vt 0.112024 0.035067
vt 0.220703 0.365501
vt 0.229063 0.359859
vt 0.637808 0.323633
vt 0.638902 0.354116
vt 0.605159 0.331932
vt 0.614153 0.320749
vt 0.472499 0.000176
vt 0.494842 0.013038
vt 0.482107 0.033153
vt 0.468941 0.032631
vt 0.305032 0.147404
vt 0.300547 0.139911
vt 0.315931 0.138045
vt 0.313153 0.147354
vt 0.297806 0.265991
vt 0.302066 0.257970
vt 0.309570 0.258846
vt 0.310498 0.267518
vt 0.372464 0.359367
vt 0.380144 0.362606
vt 0.447935 0.631763
vt 0.379114 0.843106
vn 0.607100 -0.794700 -0.000000
vn -0.491100 -0.794700 -0.356800
vn 0.187600 -0.794700 0.577400
vn 0.187600 -0.794700 -0.577400
vn 0.982200 -0.187600 0.000000
vn 0.794600 0.187600 0.577400
vn -0.303500 0.187600 0.934200
vn -0.982200 0.187600 0.000000
vn -0.303500 0.187600 -0.934200
vn 0.794600 0.187600 -0.577400
vn 0.303500 -0.187600 0.934200
vn -0.794600 -0.187600 0.577400
vn -0.794600 -0.187600 -0.577400
vn 0.303500 -0.187600 -0.934200
vn 0.491100 0.794700 0.356800
vn -0.187600 0.794700 0.577400
vn -0.607100 0.794700 -0.000000
vn -0.187600 0.794700 -0.577400
vn 0.491100 0.794700 -0.356800
vn 0.000000 -1.000000 -0.000000
vn 0.723600 -0.447200 0.525700
vn -0.276400 -0.447200 0.850700
vn -0.894400 -0.447200 0.000000
vn -0.276400 -0.447200 -0.850700
vn 0.723600 -0.447200 -0.525700
vn 0.276400 0.447200 0.850700
vn -0.723600 0.447200 0.525700
vn -0.723600 0.447200 -0.525700
vn 0.276400 0.447200 -0.850700
vn 0.894400 0.447200 0.000000
vn -0.000000 1.000000 0.000000
vn -0.162500 -0.850600 0.500000
vn 0.425300 -0.850600 0.309000
vn 0.262900 -0.525700 0.809000
vn 0.850700 -0.525700 0.000000
vn 0.425300 -0.850600 -0.309000
vn -0.525700 -0.850700 0.000000
vn -0.688200 -0.525700 0.500000
vn -0.162500 -0.850600 -0.500000
vn -0.688200 -0.525700 -0.500000
vn 0.262900 -0.525700 -0.809000
vn 0.951100 -0.000000 0.309000
vn 0.951100 -0.000000 -0.309000
vn 0.000000 0.000000 1.000000
vn 0.587800 -0.000000 0.809000
vn -0.951100 0.000000 0.309000
vn -0.587800 0.000000 0.809000
vn -0.587800 0.000000 -0.809000
vn -0.951100 0.000000 -0.309000
vn 0.587800 -0.000000 -0.809000
vn 0.000000 0.000000 -1.000000
vn 0.688200 0.525700 0.500000
vn -0.262900 0.525700 0.809000
vn -0.850700 0.525700 0.000000
vn -0.262900 0.525700 -0.809000
vn 0.688200 0.525700 -0.500000
vn 0.162500 0.850600 0.500000
vn 0.525700 0.850700 0.000000
vn -0.425300 0.850600 0.309000
vn -0.425300 0.850600 -0.309000
vn 0.162500 0.850600 -0.500000
vn -0.491100 -0.794700 0.356800
usemtl Material.001
s off
f 6/1/1 4/2/1 27/3/1
f 2/4/2 16/5/2 22/6/2
f 5/7/3 10/8/3 12/9/3
f 3/10/4 21/11/4 28/12/4
f 7/13/5 26/14/5 52/15/5
f 8/16/6 51/17/6 33/18/6
f 14/19/7 31/20/7 38/21/7
f 19/22/8 36/23/8 43/24/8
f 24/25/9 41/26/9 48/27/9
f 30/28/10 46/29/10 53/30/10
f 13/31/11 9/32/11 32/33/11
f 18/34/12 15/35/12 37/36/12
f 23/37/13 20/38/13 42/39/13
f 29/40/14 25/41/14 47/42/14
f 34/43/15 55/44/15 57/45/15
f 39/46/16 35/47/16 56/48/16
f 44/49/17 40/50/17 60/51/17
f 49/52/18 45/53/18 59/54/18
f 54/55/19 50/56/19 58/57/19
f 1/58/20 2/59/20 3/60/20 4/2/20 5/61/20
f 6/1/21 7/13/21 8/16/21 9/62/21 10/63/21
f 11/64/22 12/9/22 13/31/22 14/19/22 15/35/22
f 16/65/23 17/66/23 18/67/23 19/22/23 20/68/23
f 21/11/24 22/6/24 23/37/24 24/25/24 25/41/24
f 26/14/25 27/3/25 28/69/25 29/70/25 30/28/25
f 31/71/26 32/72/26 33/18/26 34/73/26 35/74/26
f 36/23/27 37/75/27 38/76/27 39/77/27 40/78/27
f 41/79/28 42/80/28 43/24/28 44/81/28 45/82/28
f 46/29/29 47/83/29 48/84/29 49/85/29 50/86/29
f 51/17/30 52/15/30 53/30/30 54/87/30 55/88/30
f 56/48/31 57/45/31 58/57/31 59/54/31 60/51/31
f 11/64/32 1/89/32 5/7/32 12/9/32
f 4/2/33 6/1/33 10/63/33 5/61/33
f 9/32/34 13/31/34 12/9/34 10/8/34
f 26/14/35 7/13/35 6/1/35 27/3/35
f 3/60/36 28/69/36 27/3/36 4/2/36
f 16/65/37 2/59/37 1/58/37 17/66/37
f 15/35/38 18/34/38 17/90/38 11/64/38
f 21/11/39 3/10/39 2/4/39 22/6/39
f 20/38/40 23/37/40 22/6/40 16/5/40
f 25/41/41 29/40/41 28/12/41 21/11/41
f 51/17/42 8/16/42 7/13/42 52/15/42
f 30/28/43 53/30/43 52/15/43 26/14/43
f 31/20/44 14/19/44 13/31/44 32/33/44
f 8/16/45 33/18/45 32/72/45 9/62/45
f 36/23/46 19/22/46 18/67/46 37/75/46
f 14/19/47 38/21/47 37/36/47 15/35/47
f 41/26/48 24/25/48 23/37/48 42/39/48
f 19/22/49 43/24/49 42/80/49 20/68/49
f 46/29/50 30/28/50 29/70/50 47/83/50
f 24/25/51 48/27/51 47/42/51 25/41/51
f 55/88/52 34/73/52 33/18/52 51/17/52
f 35/74/53 39/77/53 38/76/53 31/71/53
f 40/78/54 44/81/54 43/24/54 36/23/54
f 45/82/55 49/85/55 48/84/55 41/79/55
f 50/86/56 54/87/56 53/30/56 46/29/56
f 56/48/57 35/47/57 34/43/57 57/45/57
f 54/55/58 58/57/58 57/45/58 55/44/58
f 60/51/59 40/50/59 39/46/59 56/48/59
f 59/54/60 45/53/60 44/49/60 60/51/60
f 58/57/61 50/56/61 49/52/61 59/54/61
f 1/89/62 11/64/62 17/90/62
